name C:\Users\u0101727\Documents\MyRepositories\upper-imu-dc\Results\main_tracking\Case_45\FLX01_angularVelocities_groundFrame.mot
datacolumns 4
datarows 141
range 3.50600000 4.34600000
endheader 
time	radius_imu_x	radius_imu_y	radius_imu_z	
          3.50600000	         -0.01344244	         -0.05964090	         -0.10325081	
          3.51200000	         -0.01001848	         -0.05953059	         -0.10293997	
          3.51800000	         -0.00646415	         -0.05953164	         -0.10237557	
          3.52400000	         -0.00282531	         -0.05966429	         -0.10157572	
          3.53000000	          0.00085109	         -0.05994890	         -0.10056009	
          3.53600000	          0.00451821	         -0.06040438	         -0.09934946	
          3.54200000	          0.00813070	         -0.06104571	         -0.09796512	
          3.54800000	          0.01164614	         -0.06188166	         -0.09642835	
          3.55400000	          0.01502614	         -0.06291323	         -0.09476012	
          3.56000000	          0.01823758	         -0.06413190	         -0.09298072	
          3.56600000	          0.02125349	         -0.06551867	         -0.09110961	
          3.57200000	          0.02405379	         -0.06704342	         -0.08916532	
          3.57800000	          0.02662572	         -0.06866473	         -0.08716544	
          3.58400000	          0.02896404	         -0.07033044	         -0.08512670	
          3.59000000	          0.03107086	         -0.07197883	         -0.08306526	
          3.59600000	          0.03295535	         -0.07353987	         -0.08099685	
          3.60200000	          0.03463297	         -0.07493751	         -0.07893722	
          3.60800000	          0.03612463	         -0.07609227	         -0.07690257	
          3.61400000	          0.03745574	         -0.07692330	         -0.07490989	
          3.62000000	          0.03865510	         -0.07735122	         -0.07297742	
          3.62600000	          0.03975390	         -0.07729993	         -0.07112487	
          3.63200000	          0.04078448	         -0.07669889	         -0.06937369	
          3.63800000	          0.04177927	         -0.07548514	         -0.06774735	
          3.64400000	          0.04276983	         -0.07360441	         -0.06627142	
          3.65000000	          0.04378599	         -0.07101199	         -0.06497346	
          3.65600000	          0.04485506	         -0.06767323	         -0.06388290	
          3.66200000	          0.04600123	         -0.06356373	         -0.06303078	
          3.66800000	          0.04724503	         -0.05866932	         -0.06244948	
          3.67400000	          0.04860301	         -0.05298593	         -0.06217236	
          3.68000000	          0.05008755	         -0.04651926	         -0.06223332	
          3.68600000	          0.05170682	         -0.03928456	         -0.06266642	
          3.69200000	          0.05346490	         -0.03130607	         -0.06350530	
          3.69800000	          0.05536204	         -0.02261633	         -0.06478264	
          3.70400000	          0.05739488	         -0.01325579	         -0.06652968	
          3.71000000	          0.05955689	         -0.00327199	         -0.06877571	
          3.71600000	          0.06183855	          0.00728076	         -0.07154775	
          3.72200000	          0.06422773	          0.01834227	         -0.07487009	
          3.72800000	          0.06670997	          0.02984731	         -0.07876409	
          3.73400000	          0.06926866	          0.04172626	         -0.08324792	
          3.74000000	          0.07188535	          0.05390649	         -0.08833630	
          3.74600000	          0.07453985	          0.06631336	         -0.09404031	
          3.75200000	          0.07721062	          0.07887224	         -0.10036715	
          3.75800000	          0.07987510	          0.09151065	         -0.10731986	
          3.76400000	          0.08250998	          0.10415980	         -0.11489726	
          3.77000000	          0.08509153	          0.11675646	         -0.12309384	
          3.77600000	          0.08759594	          0.12924402	         -0.13189993	
          3.78200000	          0.08999962	          0.14157341	         -0.14130196	
          3.78800000	          0.09227952	          0.15370348	         -0.15128295	
          3.79400000	          0.09441331	          0.16560075	         -0.16182297	
          3.80000000	          0.09637961	          0.17723908	         -0.17289977	
          3.80600000	          0.09815805	          0.18859911	         -0.18448931	
          3.81200000	          0.09972949	          0.19966793	         -0.19656632	
          3.81800000	          0.10107609	          0.21043868	         -0.20910478	
          3.82400000	          0.10218157	          0.22091055	         -0.22207825	
          3.83000000	          0.10303143	          0.23108881	         -0.23546013	
          3.83600000	          0.10361329	          0.24098493	         -0.24922386	
          3.84200000	          0.10391717	          0.25061663	         -0.26334305	
          3.84800000	          0.10393583	          0.26000767	         -0.27779163	
          3.85400000	          0.10366498	          0.26918731	         -0.29254404	
          3.86000000	          0.10310344	          0.27818932	         -0.30757544	
          3.86600000	          0.10225332	          0.28705104	         -0.32286195	
          3.87200000	          0.10111992	          0.29581181	         -0.33838092	
          3.87800000	          0.09971173	          0.30451160	         -0.35411116	
          3.88400000	          0.09804041	          0.31318971	         -0.37003314	
          3.89000000	          0.09612074	          0.32188353	         -0.38612924	
          3.89600000	          0.09397056	          0.33062759	         -0.40238381	
          3.90200000	          0.09161071	          0.33945284	         -0.41878343	
          3.90800000	          0.08906492	          0.34838634	         -0.43531690	
          3.91400000	          0.08635977	          0.35745149	         -0.45197534	
          3.92000000	          0.08352480	          0.36666853	         -0.46875206	
          3.92600000	          0.08059248	          0.37605527	         -0.48564244	
          3.93200000	          0.07759833	          0.38562795	         -0.50264371	
          3.93800000	          0.07458094	          0.39540204	         -0.51975465	
          3.94400000	          0.07158195	          0.40539250	         -0.53697531	
          3.95000000	          0.06864586	          0.41561371	         -0.55430669	
          3.95600000	          0.06581969	          0.42607919	         -0.57175037	
          3.96200000	          0.06315244	          0.43680048	         -0.58930835	
          3.96800000	          0.06069427	          0.44778588	         -0.60698281	
          3.97400000	          0.05849567	          0.45903900	         -0.62477586	
          3.98000000	          0.05660639	          0.47055701	         -0.64268936	
          3.98600000	          0.05507434	          0.48232934	         -0.66072455	
          3.99200000	          0.05394452	          0.49433638	         -0.67888175	
          3.99800000	          0.05325792	          0.50654877	         -0.69715992	
          4.00400000	          0.05305073	          0.51892738	         -0.71555612	
          4.01000000	          0.05335365	          0.53142398	         -0.73406479	
          4.01600000	          0.05419146	          0.54398220	         -0.75267725	
          4.02200000	          0.05558298	          0.55653954	         -0.77138087	
          4.02800000	          0.05754124	          0.56902981	         -0.79015849	
          4.03400000	          0.06007395	          0.58138536	         -0.80898783	
          4.04000000	          0.06318438	          0.59354021	         -0.82784082	
          4.04600000	          0.06687219	          0.60543255	         -0.84668328	
          4.05200000	          0.07113489	          0.61700803	         -0.86547441	
          4.05800000	          0.07596919	          0.62822286	         -0.88416652	
          4.06400000	          0.08137230	          0.63904574	         -0.90270511	
          4.07000000	          0.08734317	          0.64945961	         -0.92102912	
          4.07600000	          0.09388351	          0.65946259	         -0.93907141	
          4.08200000	          0.10099834	          0.66906778	         -0.95675985	
          4.08800000	          0.10869634	          0.67830228	         -0.97401865	
          4.09400000	          0.11698980	          0.68720551	         -0.99076984	
          4.10000000	          0.12589403	          0.69582619	         -1.00693529	
          4.10600000	          0.13542688	          0.70421964	         -1.02243855	
          4.11200000	          0.14560744	          0.71244357	         -1.03720724	
          4.11800000	          0.15645470	          0.72055379	         -1.05117532	
          4.12400000	          0.16798652	          0.72860106	         -1.06428489	
          4.13000000	          0.18021814	          0.73662749	         -1.07648801	
          4.13600000	          0.19316119	          0.74466410	         -1.08774805	
          4.14200000	          0.20682251	          0.75272868	         -1.09804071	
          4.14800000	          0.22120317	          0.76082424	         -1.10735487	
          4.15400000	          0.23629754	          0.76893817	         -1.11569278	
          4.16000000	          0.25209229	          0.77704152	         -1.12307022	
          4.16600000	          0.26856524	          0.78508853	         -1.12951623	
          4.17200000	          0.28568420	          0.79301629	         -1.13507260	
          4.17800000	          0.30340577	          0.80074470	         -1.13979324	
          4.18400000	          0.32167402	          0.80817671	         -1.14374334	
          4.19000000	          0.34041973	          0.81519966	         -1.14699818	
          4.19600000	          0.35955932	          0.82168663	         -1.14964188	
          4.20200000	          0.37899517	          0.82749993	         -1.15176570	
          4.20800000	          0.39861615	          0.83249498	         -1.15346611	
          4.21400000	          0.41829823	          0.83652406	         -1.15484289	
          4.22000000	          0.43790648	          0.83944155	         -1.15599683	
          4.22600000	          0.45729655	          0.84110793	         -1.15702766	
          4.23200000	          0.47631812	          0.84139566	         -1.15803157	
          4.23800000	          0.49481900	          0.84019503	         -1.15909886	
          4.24400000	          0.51264905	          0.83741851	         -1.16031189	
          4.25000000	          0.52966605	          0.83300681	         -1.16174296	
          4.25600000	          0.54574103	          0.82693268	         -1.16345269	
          4.26200000	          0.56076494	          0.81920581	         -1.16548836	
          4.26800000	          0.57465491	          0.80987597	         -1.16788261	
          4.27400000	          0.58735859	          0.79903297	         -1.17065310	
          4.28000000	          0.59885709	          0.78680478	         -1.17380262	
          4.28600000	          0.60916693	          0.77335450	         -1.17731981	
          4.29200000	          0.61833965	          0.75887466	         -1.18118054	
          4.29800000	          0.62646044	          0.74358117	         -1.18534960	
          4.30400000	          0.63364686	          0.72770801	         -1.18978254	
          4.31000000	          0.64004541	          0.71150033	         -1.19442780	
          4.31600000	          0.64582905	          0.69520916	         -1.19922859	
          4.32200000	          0.65119091	          0.67908267	         -1.20412539	
          4.32800000	          0.65633694	          0.66335706	         -1.20905839	
          4.33400000	          0.66147850	          0.64824852	         -1.21396965	
          4.34000000	          0.66682185	          0.63394291	         -1.21880559	
          4.34600000	          0.67255960	          0.62058872	         -1.22351881	
